
<svg width="540" height="342" xmlns="http://www.w3.org/2000/svg">
<style>
.frame { fill:#050607; stroke:#00ff9c22; }
.title { fill:#00ff9c; font-family:monospace; font-size:13px; }
.label { fill:#00ff9c; font-family:monospace; font-size:12px; }
.value { fill:#eafff6; font-family:monospace; font-size:11px; text-anchor:end; }
.bar-bg { fill:#0f1a17; }
.bar { fill:#00ff9c; }
.footer { fill:#00ff9c66; font-family:monospace; font-size:10px; }
</style>

<rect class="frame" x="6" y="6" rx="18"
      width="528" height="330"/>

<text class="title" x="30" y="36">COMMITS BY WEEKDAY</text>

    <text class="label" x="30" y="62">Monday</text>
    <rect class="bar-bg" x="160" y="52" width="260" height="12" rx="6"/>
    <rect class="bar" x="160" y="52" width="0" height="12" rx="6"/>
    <text class="value" x="460" y="63">0</text>
    
    <text class="label" x="30" y="88">Tuesday</text>
    <rect class="bar-bg" x="160" y="78" width="260" height="12" rx="6"/>
    <rect class="bar" x="160" y="78" width="0" height="12" rx="6"/>
    <text class="value" x="460" y="89">0</text>
    
    <text class="label" x="30" y="114">Wednesday</text>
    <rect class="bar-bg" x="160" y="104" width="260" height="12" rx="6"/>
    <rect class="bar" x="160" y="104" width="0" height="12" rx="6"/>
    <text class="value" x="460" y="115">0</text>
    
    <text class="label" x="30" y="140">Thursday</text>
    <rect class="bar-bg" x="160" y="130" width="260" height="12" rx="6"/>
    <rect class="bar" x="160" y="130" width="0" height="12" rx="6"/>
    <text class="value" x="460" y="141">0</text>
    
    <text class="label" x="30" y="166">Friday</text>
    <rect class="bar-bg" x="160" y="156" width="260" height="12" rx="6"/>
    <rect class="bar" x="160" y="156" width="0" height="12" rx="6"/>
    <text class="value" x="460" y="167">0</text>
    
    <text class="label" x="30" y="192">Saturday</text>
    <rect class="bar-bg" x="160" y="182" width="260" height="12" rx="6"/>
    <rect class="bar" x="160" y="182" width="0" height="12" rx="6"/>
    <text class="value" x="460" y="193">0</text>
    
    <text class="label" x="30" y="218">Sunday</text>
    <rect class="bar-bg" x="160" y="208" width="260" height="12" rx="6"/>
    <rect class="bar" x="160" y="208" width="0" height="12" rx="6"/>
    <text class="value" x="460" y="219">0</text>
    
<text class="footer" x="30" y="322">
Last updated: 28 Jan 2026 • 13:57 IST
</text>
</svg>
