
<svg width="520" height="432" viewBox="0 0 520 432"
     xmlns="http://www.w3.org/2000/svg">

<defs>
  <linearGradient id="grad" x1="0" y1="0" x2="1" y2="0">
    <stop offset="0%" stop-color="#00ff9c"/>
    <stop offset="100%" stop-color="#4dffd2"/>
  </linearGradient>
</defs>

<style>
  .frame {
    fill:#050607;
    stroke:#00ff9c22;
    stroke-width:1;
  }

  .title {
    fill:#00ff9c;
    font-family:monospace;
    font-size:13px;
    letter-spacing:1px;
  }

  .label {
    fill:#00ff9c;
    font-family:monospace;
    font-size:12px;
  }

  .value {
    fill:#9fffe0;
    font-family:monospace;
    font-size:11px;
    text-anchor:end;
  }

  .bar-bg {
    fill:#0f1a17;
  }

  .bar {
    fill:url(#grad);
  }

  .highlight {
    fill:#00ff9c;
  }

  .divider {
    stroke:#00ff9c33;
    stroke-width:1;
  }

  .footer {
    fill:#00ff9c66;
    font-family:monospace;
    font-size:10px;
  }
</style>

<rect class="frame" x="6" y="6" rx="18" ry="18"
      width="508" height="420"/>

<text class="title" x="30" y="36">PHASE OF DAY</text>

    <text class="label" x="30" y="62">Morning</text>

    <rect class="bar-bg" x="160" y="52" width="260" height="12" rx="6"/>

    <rect class="bar" x="160" y="52" height="12" rx="6">
      <title>0.0 hrs</title>
      <animate attributeName="width"
               from="0"
               to="2"
               dur="0.5s"
               begin="0.05s"
               fill="freeze"/>
    </rect>

    <text class="value" x="450" y="63">0%</text>
    
    <text class="label" x="30" y="88">Daytime</text>

    <rect class="bar-bg" x="160" y="78" width="260" height="12" rx="6"/>

    <rect class="bar" x="160" y="78" height="12" rx="6">
      <title>0.0 hrs</title>
      <animate attributeName="width"
               from="0"
               to="2"
               dur="0.5s"
               begin="0.1s"
               fill="freeze"/>
    </rect>

    <text class="value" x="450" y="89">0%</text>
    
    <text class="label" x="30" y="114">Evening</text>

    <rect class="bar-bg" x="160" y="104" width="260" height="12" rx="6"/>

    <rect class="bar" x="160" y="104" height="12" rx="6">
      <title>0.0 hrs</title>
      <animate attributeName="width"
               from="0"
               to="2"
               dur="0.5s"
               begin="0.15000000000000002s"
               fill="freeze"/>
    </rect>

    <text class="value" x="450" y="115">0%</text>
    
    <text class="label" x="30" y="140">Night</text>

    <rect class="bar-bg" x="160" y="130" width="260" height="12" rx="6"/>

    <rect class="bar" x="160" y="130" height="12" rx="6">
      <title>0.0 hrs</title>
      <animate attributeName="width"
               from="0"
               to="2"
               dur="0.5s"
               begin="0.2s"
               fill="freeze"/>
    </rect>

    <text class="value" x="450" y="141">0%</text>
    
<line class="divider" x1="30" y1="156" x2="490" y2="156"/>
<text class="title" x="30" y="182">DAYS OF WEEK</text>

    <text class="label" x="30" y="208">Monday</text>

    <rect class="bar-bg" x="160" y="198" width="260" height="12" rx="6"/>

    <rect class="bar" x="160" y="198" height="12" rx="6">
      <title>0.0 hrs</title>
      <animate attributeName="width"
               from="0"
               to="2"
               dur="0.5s"
               begin="0.25s"
               fill="freeze"/>
    </rect>

    <text class="value" x="450" y="209">0%</text>
    
    <text class="label" x="30" y="234">Tuesday</text>

    <rect class="bar-bg" x="160" y="224" width="260" height="12" rx="6"/>

    <rect class="bar highlight" x="160" y="224" height="12" rx="6">
      <title>0.0 hrs</title>
      <animate attributeName="width"
               from="0"
               to="2"
               dur="0.5s"
               begin="0.29s"
               fill="freeze"/>
    </rect>

    <text class="value" x="450" y="235">0%</text>
    
    <text class="label" x="30" y="260">Wednesday</text>

    <rect class="bar-bg" x="160" y="250" width="260" height="12" rx="6"/>

    <rect class="bar" x="160" y="250" height="12" rx="6">
      <title>0.0 hrs</title>
      <animate attributeName="width"
               from="0"
               to="2"
               dur="0.5s"
               begin="0.32999999999999996s"
               fill="freeze"/>
    </rect>

    <text class="value" x="450" y="261">0%</text>
    
    <text class="label" x="30" y="286">Thursday</text>

    <rect class="bar-bg" x="160" y="276" width="260" height="12" rx="6"/>

    <rect class="bar" x="160" y="276" height="12" rx="6">
      <title>0.0 hrs</title>
      <animate attributeName="width"
               from="0"
               to="2"
               dur="0.5s"
               begin="0.36999999999999994s"
               fill="freeze"/>
    </rect>

    <text class="value" x="450" y="287">0%</text>
    
    <text class="label" x="30" y="312">Friday</text>

    <rect class="bar-bg" x="160" y="302" width="260" height="12" rx="6"/>

    <rect class="bar" x="160" y="302" height="12" rx="6">
      <title>0.0 hrs</title>
      <animate attributeName="width"
               from="0"
               to="2"
               dur="0.5s"
               begin="0.4099999999999999s"
               fill="freeze"/>
    </rect>

    <text class="value" x="450" y="313">0%</text>
    
    <text class="label" x="30" y="338">Saturday</text>

    <rect class="bar-bg" x="160" y="328" width="260" height="12" rx="6"/>

    <rect class="bar" x="160" y="328" height="12" rx="6">
      <title>0.0 hrs</title>
      <animate attributeName="width"
               from="0"
               to="2"
               dur="0.5s"
               begin="0.4499999999999999s"
               fill="freeze"/>
    </rect>

    <text class="value" x="450" y="339">0%</text>
    
    <text class="label" x="30" y="364">Sunday</text>

    <rect class="bar-bg" x="160" y="354" width="260" height="12" rx="6"/>

    <rect class="bar" x="160" y="354" height="12" rx="6">
      <title>0.0 hrs</title>
      <animate attributeName="width"
               from="0"
               to="2"
               dur="0.5s"
               begin="0.4899999999999999s"
               fill="freeze"/>
    </rect>

    <text class="value" x="450" y="365">0%</text>
    
<text class="footer" x="30" y="412">
  Last updated: 27 Jan 2026 • 18:31 UTC
</text>
</svg>
