
<svg width="420" height="260" xmlns="http://www.w3.org/2000/svg">
<style>
text { fill:#00ff9c; font-family:monospace; font-size:12px }
rect { fill:#00ff9c }
</style>
<rect width="100%" height="100%" rx="16" fill="#050505"/>

    <text x="24" y="36">Morning</text>
    <rect x="120" y="27" width="2" height="10" rx="5"/>
    <text x="132" y="36">0</text>
    
    <text x="24" y="58">Daytime</text>
    <rect x="120" y="49" width="2" height="10" rx="5"/>
    <text x="132" y="58">0</text>
    
    <text x="24" y="80">Evening</text>
    <rect x="120" y="71" width="2" height="10" rx="5"/>
    <text x="132" y="80">0</text>
    
    <text x="24" y="102">Night</text>
    <rect x="120" y="93" width="2" height="10" rx="5"/>
    <text x="132" y="102">0</text>
    
    <text x="24" y="134">Monday</text>
    <rect x="120" y="125" width="2" height="10" rx="5"/>
    <text x="132" y="134">0</text>
    
    <text x="24" y="156">Tuesday</text>
    <rect x="120" y="147" width="2" height="10" rx="5"/>
    <text x="132" y="156">0</text>
    
    <text x="24" y="178">Wednesday</text>
    <rect x="120" y="169" width="2" height="10" rx="5"/>
    <text x="132" y="178">0</text>
    
    <text x="24" y="200">Thursday</text>
    <rect x="120" y="191" width="2" height="10" rx="5"/>
    <text x="132" y="200">0</text>
    
    <text x="24" y="222">Friday</text>
    <rect x="120" y="213" width="2" height="10" rx="5"/>
    <text x="132" y="222">0</text>
    
    <text x="24" y="244">Saturday</text>
    <rect x="120" y="235" width="2" height="10" rx="5"/>
    <text x="132" y="244">0</text>
    
    <text x="24" y="266">Sunday</text>
    <rect x="120" y="257" width="2" height="10" rx="5"/>
    <text x="132" y="266">0</text>
    </svg>