
<svg width="540" height="442" xmlns="http://www.w3.org/2000/svg">
<style>
.frame {
  fill:#050607;
  stroke:#00ff9c22;
  stroke-width:1;
}
.title {
  fill:#00ff9c;
  font-family:monospace;
  font-size:13px;
  letter-spacing:1px;
}
.label {
  fill:#00ff9c;
  font-family:monospace;
  font-size:12px;
}
.value {
  fill:#eafff6;
  font-family:monospace;
  font-size:11px;
  font-weight:bold;
  text-anchor:end;
}
.bar-bg { fill:#0f1a17; }
.bar { fill:#00ff9c; }
.divider { stroke:#00ff9c33; }
.footer {
  fill:#00ff9c66;
  font-family:monospace;
  font-size:10px;
}
</style>

<rect class="frame" x="6" y="6" rx="18"
      width="528" height="430"/>

<text class="title" x="30" y="36">PHASE OF DAY</text>

    <text class="label" x="30" y="62">Morning</text>
    <rect class="bar-bg" x="160" y="52" width="260" height="12" rx="6"/>
    <rect class="bar" x="160" y="52" width="0" height="12" rx="6"/>
    <text class="value" x="460" y="63">0m</text>
    
    <text class="label" x="30" y="88">Daytime</text>
    <rect class="bar-bg" x="160" y="78" width="260" height="12" rx="6"/>
    <rect class="bar" x="160" y="78" width="0" height="12" rx="6"/>
    <text class="value" x="460" y="89">0m</text>
    
    <text class="label" x="30" y="114">Evening</text>
    <rect class="bar-bg" x="160" y="104" width="260" height="12" rx="6"/>
    <rect class="bar" x="160" y="104" width="0" height="12" rx="6"/>
    <text class="value" x="460" y="115">0m</text>
    
    <text class="label" x="30" y="140">Night</text>
    <rect class="bar-bg" x="160" y="130" width="260" height="12" rx="6"/>
    <rect class="bar" x="160" y="130" width="260" height="12" rx="6"/>
    <text class="value" x="460" y="141">3h 9m</text>
    
<line class="divider" x1="30" y1="156" x2="510" y2="156"/>
<text class="title" x="30" y="182">DAYS OF WEEK</text>

    <text class="label" x="30" y="208">Monday</text>
    <rect class="bar-bg" x="160" y="198" width="260" height="12" rx="6"/>
    <rect class="bar" x="160" y="198" width="0" height="12" rx="6"/>
    <text class="value" x="460" y="209">0m</text>
    
    <text class="label" x="30" y="234">Tuesday</text>
    <rect class="bar-bg" x="160" y="224" width="260" height="12" rx="6"/>
    <rect class="bar" x="160" y="224" width="80" height="12" rx="6"/>
    <text class="value" x="460" y="235">37m</text>
    
    <text class="label" x="30" y="260">Wednesday</text>
    <rect class="bar-bg" x="160" y="250" width="260" height="12" rx="6"/>
    <rect class="bar" x="160" y="250" width="260" height="12" rx="6"/>
    <text class="value" x="460" y="261">2h 32m</text>
    
    <text class="label" x="30" y="286">Thursday</text>
    <rect class="bar-bg" x="160" y="276" width="260" height="12" rx="6"/>
    <rect class="bar" x="160" y="276" width="0" height="12" rx="6"/>
    <text class="value" x="460" y="287">0m</text>
    
    <text class="label" x="30" y="312">Friday</text>
    <rect class="bar-bg" x="160" y="302" width="260" height="12" rx="6"/>
    <rect class="bar" x="160" y="302" width="0" height="12" rx="6"/>
    <text class="value" x="460" y="313">0m</text>
    
    <text class="label" x="30" y="338">Saturday</text>
    <rect class="bar-bg" x="160" y="328" width="260" height="12" rx="6"/>
    <rect class="bar" x="160" y="328" width="0" height="12" rx="6"/>
    <text class="value" x="460" y="339">0m</text>
    
    <text class="label" x="30" y="364">Sunday</text>
    <rect class="bar-bg" x="160" y="354" width="260" height="12" rx="6"/>
    <rect class="bar" x="160" y="354" width="0" height="12" rx="6"/>
    <text class="value" x="460" y="365">0m</text>
    
<text class="footer" x="30" y="422">
Last updated: 29 Jan 2026 • 18:14 IST
</text>
</svg>
