
<svg width="520" height="420" viewBox="0 0 520 420"
     xmlns="http://www.w3.org/2000/svg">

<style>
  .frame { fill:#050607; stroke:#00ff9c44; stroke-width:1; }
  .title { fill:#00ff9c; font-family:monospace; font-size:13px; letter-spacing:1px; }
  .label { fill:#00ff9c; font-family:monospace; font-size:12px; }
  .value { fill:#9fffe0; font-family:monospace; font-size:11px; text-anchor:end; }
  .bar-bg { fill:#0f1a17; }
  .bar { fill:#00ff9c; }
  .divider { stroke:#00ff9c33; stroke-width:1; }
</style>

<rect class="frame" x="6" y="6" rx="18" ry="18" width="508" height="408"/>

<text class="title" x="30" y="36">PHASE OF DAY</text>

    <text class="label" x="30" y="62">Morning</text>
    <rect class="bar-bg" x="160" y="52" width="260" height="12" rx="6"/>
    <rect class="bar" x="160" y="52" height="12" rx="6">
      <animate attributeName="width"
               from="0"
               to="2"
               dur="0.6s"
               begin="0.05s"
               fill="freeze"/>
    </rect>
    <text class="value" x="450" y="63">0%</text>
    
    <text class="label" x="30" y="88">Daytime</text>
    <rect class="bar-bg" x="160" y="78" width="260" height="12" rx="6"/>
    <rect class="bar" x="160" y="78" height="12" rx="6">
      <animate attributeName="width"
               from="0"
               to="2"
               dur="0.6s"
               begin="0.1s"
               fill="freeze"/>
    </rect>
    <text class="value" x="450" y="89">0%</text>
    
    <text class="label" x="30" y="114">Evening</text>
    <rect class="bar-bg" x="160" y="104" width="260" height="12" rx="6"/>
    <rect class="bar" x="160" y="104" height="12" rx="6">
      <animate attributeName="width"
               from="0"
               to="2"
               dur="0.6s"
               begin="0.15000000000000002s"
               fill="freeze"/>
    </rect>
    <text class="value" x="450" y="115">0%</text>
    
    <text class="label" x="30" y="140">Night</text>
    <rect class="bar-bg" x="160" y="130" width="260" height="12" rx="6"/>
    <rect class="bar" x="160" y="130" height="12" rx="6">
      <animate attributeName="width"
               from="0"
               to="2"
               dur="0.6s"
               begin="0.2s"
               fill="freeze"/>
    </rect>
    <text class="value" x="450" y="141">0%</text>
    
<line class="divider" x1="30" y1="182" x2="490" y2="182"/>
<text class="title" x="30" y="210">DAYS OF WEEK</text>

    <text class="label" x="30" y="236">Monday</text>
    <rect class="bar-bg" x="160" y="226" width="260" height="12" rx="6"/>
    <rect class="bar" x="160" y="226" height="12" rx="6">
      <animate attributeName="width"
               from="0"
               to="2"
               dur="0.6s"
               begin="0.25s"
               fill="freeze"/>
    </rect>
    <text class="value" x="450" y="237">0%</text>
    
    <text class="label" x="30" y="262">Tuesday</text>
    <rect class="bar-bg" x="160" y="252" width="260" height="12" rx="6"/>
    <rect class="bar" x="160" y="252" height="12" rx="6">
      <animate attributeName="width"
               from="0"
               to="2"
               dur="0.6s"
               begin="0.29s"
               fill="freeze"/>
    </rect>
    <text class="value" x="450" y="263">0%</text>
    
    <text class="label" x="30" y="288">Wednesday</text>
    <rect class="bar-bg" x="160" y="278" width="260" height="12" rx="6"/>
    <rect class="bar" x="160" y="278" height="12" rx="6">
      <animate attributeName="width"
               from="0"
               to="2"
               dur="0.6s"
               begin="0.32999999999999996s"
               fill="freeze"/>
    </rect>
    <text class="value" x="450" y="289">0%</text>
    
    <text class="label" x="30" y="314">Thursday</text>
    <rect class="bar-bg" x="160" y="304" width="260" height="12" rx="6"/>
    <rect class="bar" x="160" y="304" height="12" rx="6">
      <animate attributeName="width"
               from="0"
               to="2"
               dur="0.6s"
               begin="0.36999999999999994s"
               fill="freeze"/>
    </rect>
    <text class="value" x="450" y="315">0%</text>
    
    <text class="label" x="30" y="340">Friday</text>
    <rect class="bar-bg" x="160" y="330" width="260" height="12" rx="6"/>
    <rect class="bar" x="160" y="330" height="12" rx="6">
      <animate attributeName="width"
               from="0"
               to="2"
               dur="0.6s"
               begin="0.4099999999999999s"
               fill="freeze"/>
    </rect>
    <text class="value" x="450" y="341">0%</text>
    
    <text class="label" x="30" y="366">Saturday</text>
    <rect class="bar-bg" x="160" y="356" width="260" height="12" rx="6"/>
    <rect class="bar" x="160" y="356" height="12" rx="6">
      <animate attributeName="width"
               from="0"
               to="2"
               dur="0.6s"
               begin="0.4499999999999999s"
               fill="freeze"/>
    </rect>
    <text class="value" x="450" y="367">0%</text>
    
    <text class="label" x="30" y="392">Sunday</text>
    <rect class="bar-bg" x="160" y="382" width="260" height="12" rx="6"/>
    <rect class="bar" x="160" y="382" height="12" rx="6">
      <animate attributeName="width"
               from="0"
               to="2"
               dur="0.6s"
               begin="0.4899999999999999s"
               fill="freeze"/>
    </rect>
    <text class="value" x="450" y="393">0%</text>
    </svg>