
<svg width="540" height="402" xmlns="http://www.w3.org/2000/svg">
<style>
.frame {
  fill:#050607;
  stroke:#00ff9c22;
  stroke-width:1;
}
.title {
  fill:#00ff9c;
  font-family:monospace;
  font-size:13px;
  letter-spacing:1px;
}
.label {
  fill:#00ff9c;
  font-family:monospace;
  font-size:12px;
}
.value {
  fill:#eafff6;
  font-family:monospace;
  font-size:11px;
  font-weight:bold;
  text-anchor:end;
}
.bar-bg { fill:#0f1a17; }
.bar { fill:#00ff9c; }
.divider { stroke:#00ff9c33; }
.footer {
  fill:#00ff9c66;
  font-family:monospace;
  font-size:10px;
}
</style>

<rect class="frame" x="6" y="6" rx="18"
      width="528" height="390"/>

<text class="title" x="30" y="36">DAYTIME vs NIGHTTIME</text>

    <text class="label" x="30" y="62">Daytime</text>
    <rect class="bar-bg" x="160" y="52" width="260" height="12" rx="6"/>
    <rect class="bar" x="160" y="52" width="237" height="12" rx="6"/>
    <text class="value" x="460" y="63">3h 39m</text>
    
    <text class="label" x="30" y="88">Nighttime</text>
    <rect class="bar-bg" x="160" y="78" width="260" height="12" rx="6"/>
    <rect class="bar" x="160" y="78" width="161" height="12" rx="6"/>
    <text class="value" x="460" y="89">2h 29m</text>
    
<line class="divider" x1="30" y1="104" x2="510" y2="104"/>
<text class="title" x="30" y="130">DAYS OF WEEK</text>

    <text class="label" x="30" y="156">Monday</text>
    <rect class="bar-bg" x="160" y="146" width="260" height="12" rx="6"/>
    <rect class="bar" x="160" y="146" width="40" height="12" rx="6"/>
    <text class="value" x="460" y="157">37m</text>
    
    <text class="label" x="30" y="182">Tuesday</text>
    <rect class="bar-bg" x="160" y="172" width="260" height="12" rx="6"/>
    <rect class="bar" x="160" y="172" width="165" height="12" rx="6"/>
    <text class="value" x="460" y="183">2h 33m</text>
    
    <text class="label" x="30" y="208">Wednesday</text>
    <rect class="bar-bg" x="160" y="198" width="260" height="12" rx="6"/>
    <rect class="bar" x="160" y="198" width="0" height="12" rx="6"/>
    <text class="value" x="460" y="209">0m</text>
    
    <text class="label" x="30" y="234">Thursday</text>
    <rect class="bar-bg" x="160" y="224" width="260" height="12" rx="6"/>
    <rect class="bar" x="160" y="224" width="192" height="12" rx="6"/>
    <text class="value" x="460" y="235">2h 58m</text>
    
    <text class="label" x="30" y="260">Friday</text>
    <rect class="bar-bg" x="160" y="250" width="260" height="12" rx="6"/>
    <rect class="bar" x="160" y="250" width="0" height="12" rx="6"/>
    <text class="value" x="460" y="261">0m</text>
    
    <text class="label" x="30" y="286">Saturday</text>
    <rect class="bar-bg" x="160" y="276" width="260" height="12" rx="6"/>
    <rect class="bar" x="160" y="276" width="0" height="12" rx="6"/>
    <text class="value" x="460" y="287">0m</text>
    
    <text class="label" x="30" y="312">Sunday</text>
    <rect class="bar-bg" x="160" y="302" width="260" height="12" rx="6"/>
    <rect class="bar" x="160" y="302" width="0" height="12" rx="6"/>
    <text class="value" x="460" y="313">0m</text>
    
<text class="footer" x="30" y="382">
Last updated: 03 Feb 2026 • 00:05 IST
</text>
</svg>
